<svg width="200" height="200" viewBox="0 0 200 200" fill="none" xmlns="http://www.w3.org/2000/svg">
<path d="M74.225 75H84.1667C86.25 75 87.5 76.6667 87.5 78.3334V146.667C87.5 148.329 85.8333 150 84.1667 150H74.2333C72.5667 150 70.9 148.333 70.9 146.667V78.3334C70.4833 76.25 72.1416 75 74.225 75ZM59.1667 45.8334H45.4167C43.3333 45.8334 41.6667 47.5125 41.6667 49.1959V70.8334H9.16666C6.66666 70.8334 4.16666 73.3542 4.16666 75.875V144.958C4.16666 147.483 6.66666 150 9.16666 150H59.1667C60.8333 150 62.5 148.729 62.5 146.629V49.1959C62.5 47.5125 61.25 45.8334 59.1667 45.8334ZM41.6667 130.346C41.6667 132.004 40 133.679 38.3333 133.679H28.3333C26.6667 133.679 25 132.017 25 130.346V90.8334C25 89.1667 26.25 87.5 28.3333 87.5H38.3333C40.4167 87.5 41.6667 89.1667 41.6667 90.8334V130.346ZM138.333 104.167C140.417 104.167 141.667 106.667 141.667 107.5V146.667C141.667 148.329 139.908 150 138.333 150H99.1666C97.3958 150 95.8333 148.333 95.8333 146.667V136.725C95.8333 134.642 97.5 133.396 99.1666 133.396L125 133.333V120.833H99.1666C97.7875 120.833 95.8333 119.167 95.8333 117.496V78.3334C95.8333 76.25 97.5 75 99.1666 75H138.333C139.996 75 141.667 76.6667 141.667 78.3334V88.3334C141.667 89.5834 140.558 91.6667 138.333 91.6667H112.5V104.167H138.333ZM200 116.667V146.667C200 148.329 198.333 150 196.662 150H153.333C152.5 150 150 148.333 150 146.667V78.3334C150 76.25 151.8 75 153.462 75H196.667C196.667 75 200 75 200 78.3334V104.167H183.333V95C183.333 95 183.75 91.6667 180 91.6667H170C167.917 91.6667 166.667 93.3334 166.667 95V130C166.667 131.663 168.75 133.333 170 133.333H180C181.662 133.333 183.333 131.667 183.333 130V116.667H200Z" fill="#2196F3"/>
<path d="M190.829 66.5833H195.417V53.6708H200V49.9166H186.662V53.6708H190.829V66.5833ZM183.392 60.3166H178.629V60.7125C178.629 62.3041 178.229 63.1 176.246 63.1C174.267 63.1 173.871 62.3041 173.871 59.925V57.1416C173.871 54.7583 173.871 53.9666 176.246 53.9666C177.833 53.9666 178.629 54.3625 178.629 55.9541V56.35H182.992V55.9541C182.992 51.5916 181.404 50 176.646 50H175.45C170.696 50 169.104 51.5916 169.104 56.7416V59.925C169.104 64.6833 170.692 66.6666 175.45 66.6666H177.046C181.408 66.6666 182.996 64.6791 182.996 60.7083V60.3125L183.392 60.3166ZM122.983 50L119.654 62.0833L115.9 50H109.237V66.6666H113.817V54.1666L117.146 66.6666H121.737L125.479 54.5833V66.6666H129.646V50H122.983ZM161.304 50H153.812L148.817 66.6666H153.812L154.642 63.75H160.479L161.308 66.6666H166.304L161.304 50ZM157.975 60.4166H156.308L157.975 53.3333L159.633 60.4166H157.975ZM141.333 50H133.417V66.6666H138.008V62.0833H141.338C145.929 62.0833 147.588 60.4166 147.588 56.25V55C147.583 51.25 145.917 50 141.333 50ZM143 56.6666C143 58.3333 142.583 58.75 141.333 58.75H138.004V53.75H140.921C142.587 53.75 143.004 54.1666 143.004 55.4166L143 56.6666ZM98.3083 50H95.925C91.1625 50 89.5792 51.5916 89.5792 56.7416V59.9166C89.5792 64.6833 91.1667 66.6666 95.925 66.6666H98.3083C103.071 66.6666 104.654 64.6791 104.654 59.9166V56.7416C104.654 51.5916 103.071 50 98.3083 50ZM99.8958 59.125C99.8958 61.5041 99.8958 62.3041 97.5167 62.3041H96.725C94.3458 62.3041 94.3458 61.5083 94.3458 59.125V56.7416C94.3458 54.3666 94.3458 53.5666 96.725 53.5666H97.5167C99.8958 53.5666 99.8958 54.3625 99.8958 56.7416V59.125ZM85.0917 60.3208H80.325V60.7166C80.325 62.3083 79.9292 63.0958 77.9458 63.0958C75.9625 63.0958 75.5667 62.3083 75.5667 59.9208V57.1458C75.5667 54.7583 75.5667 53.9708 77.9458 53.9708C79.5333 53.9708 80.325 54.3666 80.325 55.95V56.35H84.6917V55.95C84.6917 51.5875 83.1042 50 78.3458 50H77.1542C72.3917 50 70.8042 51.5875 70.8042 56.7416V59.9208C70.8042 64.6833 72.3917 66.6666 77.1542 66.6666H78.7417C83.1083 66.6666 84.6958 64.6791 84.6958 60.7125V60.3166H85.0917V60.3208Z" fill="#0D47A1"/>
</svg>
