<svg width="200" height="200" viewBox="0 0 200 200" fill="none" xmlns="http://www.w3.org/2000/svg">
<path d="M181.044 75H59.0125C56.3879 74.9994 53.8298 75.8249 51.7006 77.3595C49.5715 78.8941 47.9794 81.0599 47.15 83.55L25 150V62.5H175C175 59.1848 173.683 56.0054 171.339 53.6612C168.995 51.317 165.815 50 162.5 50H94.525C91.6012 49.9987 88.7704 48.9725 86.525 47.1L78.475 40.4C76.2296 38.5275 73.3988 37.5013 70.475 37.5H25C21.6848 37.5 18.5054 38.817 16.1612 41.1612C13.817 43.5054 12.5 46.6848 12.5 50V150C12.5 153.315 13.817 156.495 16.1612 158.839C18.5054 161.183 21.6848 162.5 25 162.5H162.5L192.531 92.425C193.346 90.5238 193.677 88.4501 193.493 86.3898C193.309 84.3294 192.617 82.3469 191.479 80.6199C190.34 78.8929 188.791 77.4755 186.97 76.4946C185.148 75.5138 183.112 75.0002 181.044 75Z" fill="#FBC02D"/>
<path d="M100 100H87.5V181.25C87.5 182.908 88.1585 184.497 89.3306 185.669C90.5027 186.842 92.0924 187.5 93.75 187.5H175V175H100V100Z" fill="#FFF9C4"/>
<path d="M193.75 75H118.75C117.092 75 115.503 75.6585 114.331 76.8306C113.158 78.0027 112.5 79.5924 112.5 81.25V156.25C112.5 157.908 113.158 159.497 114.331 160.669C115.503 161.842 117.092 162.5 118.75 162.5H193.75C195.408 162.5 196.997 161.842 198.169 160.669C199.342 159.497 200 157.908 200 156.25V81.25C200 79.5924 199.342 78.0027 198.169 76.8306C196.997 75.6585 195.408 75 193.75 75ZM162.5 150H125V137.5H162.5V150ZM187.5 125H125V112.5H187.5V125ZM187.5 100H125V87.5H187.5V100Z" fill="#FFF9C4"/>
</svg>
