<svg width="200" height="200" viewBox="0 0 200 200" fill="none" xmlns="http://www.w3.org/2000/svg">
<path d="M83.75 67.5L84.1667 77.0833L77.5 89.5833L67.0833 110L65 127.083L72.5 151.25L89.5833 160.833H115.417L139.583 142.5L150.417 113.75L125.417 83.3333L118.333 66.25L83.75 67.5Z" fill="#ECEFF1"/>
<path d="M142.917 91.25C136.25 81.6666 130.833 75.8333 127.917 63.75C125 51.6666 128.75 55 126.25 44.5833C125 39.1666 122.917 35.4166 120.833 32.5C118.333 29.5833 115.417 27.9166 113.75 27.5C110 25.4166 101.25 22.0833 90.4167 27.9166C79.1667 33.75 80.4167 46.25 82.5 71.6666C82.5 73.3333 82.0833 75.4166 81.25 77.0833C79.5833 80.8333 76.6667 84.1666 74.1667 87.0833C71.25 91.25 68.3333 95.4166 66.25 100C61.25 109.583 56.6667 121.667 57.9167 126.25C60 125.833 86.25 165.833 86.25 166.667C87.9167 166.25 95 166.25 101.25 166.25C110 165.833 115 165.417 122.083 167.083C122.083 165.833 121.667 164.583 121.667 163.333C121.667 160.833 122.083 158.75 122.5 155.833C122.917 153.75 123.333 151.667 123.75 149.167C119.583 152.917 112.083 157.083 105 158.333C98.75 159.583 88.3333 157.5 83.3333 151.25C83.75 151.25 84.5833 151.25 85 150.833C86.25 150.417 87.5 150 87.9167 149.167C89.1667 147.083 88.3333 145 87.5 143.75C86.6667 142.5 80.4167 137.917 77.5 135.417C74.5833 132.917 72.9167 131.667 71.25 130L67.9167 126.667C67.0833 125.833 66.6667 125 66.25 124.583C65.4167 122.5 65 120 65.4167 116.667C65.8333 112.083 67.5 108.333 69.5833 104.167C70.4167 102.5 72.5 99.1666 72.5 99.1666C72.5 99.1666 65.4167 116.667 69.1667 122.083C69.1667 122.083 69.5833 116.667 71.25 111.25C72.5 107.5 74.5833 102.083 77.0833 99.1666C79.5833 96.25 85.8333 85.4166 86.25 78.75C86.25 75.8333 86.6667 72.9166 86.6667 70.8333C85 69.1666 114.167 65 115.833 69.5833C116.25 71.25 122.083 86.25 125.417 94.1666C127.083 97.9166 129.167 101.25 130.417 105.417C131.667 110 132.5 116.25 132.5 122.5C132.5 123.75 132.5 125.833 132.083 127.917C132.917 127.917 149.167 110.417 130 95.8333C130 95.8333 141.667 101.25 142.083 112.083C142.5 120.833 138.75 127.917 137.917 129.167C138.333 129.167 146.667 132.917 147.083 132.917C148.75 132.917 152.083 131.667 152.083 131.667C152.5 130.417 153.75 127.083 153.75 125.833C156.667 116.25 149.583 100.833 142.917 91.25Z" fill="#263238"/>
<path d="M90 63.7499C92.9915 63.7499 95.4166 60.019 95.4166 55.4166C95.4166 50.8142 92.9915 47.0833 90 47.0833C87.0084 47.0833 84.5833 50.8142 84.5833 55.4166C84.5833 60.019 87.0084 63.7499 90 63.7499Z" fill="#ECEFF1"/>
<path d="M108.75 64.5833C112.662 64.5833 115.833 60.2927 115.833 55C115.833 49.7072 112.662 45.4166 108.75 45.4166C104.838 45.4166 101.667 49.7072 101.667 55C101.667 60.2927 104.838 64.5833 108.75 64.5833Z" fill="#ECEFF1"/>
<path d="M93.0289 55.9862C92.6826 53.2465 91.1063 51.1894 89.5082 51.3914C87.9101 51.5934 86.8953 53.9781 87.2416 56.7177C87.5879 59.4573 89.1641 61.5145 90.7622 61.3125C92.3603 61.1105 93.3752 58.7258 93.0289 55.9862Z" fill="#212121"/>
<path d="M108.333 62.0833C110.635 62.0833 112.5 59.6582 112.5 56.6667C112.5 53.6751 110.635 51.25 108.333 51.25C106.032 51.25 104.167 53.6751 104.167 56.6667C104.167 59.6582 106.032 62.0833 108.333 62.0833Z" fill="#212121"/>
<path d="M163.75 148.333C162.083 147.5 159.167 146.25 156.667 142.5C155.417 140.417 155.833 134.583 153.75 132.083C152.5 130.417 150.833 131.25 150.417 131.25C146.667 132.083 137.917 137.917 132.083 131.25C131.25 130.417 130 129.167 127.917 129.167C125.833 129.167 125 130 124.167 131.667C123.333 133.333 123.333 134.583 123.333 138.75C123.333 142.083 123.333 145.833 122.917 148.75C122.083 155.833 120.833 160 120.833 164.167C120.833 168.75 122.083 171.667 123.75 172.917C125 174.167 127.083 175 131.667 175C136.25 175 139.167 173.333 142.083 170.417C144.167 168.333 145.833 167.5 151.667 163.333C156.25 160.417 163.333 156.667 164.583 155.417C165.417 154.583 166.667 154.167 166.667 151.667C166.667 149.583 165 148.75 163.75 148.333ZM80 149.583C75.8333 142.917 75.4166 141.667 72.5 137.5C70 133.333 64.5833 125.417 61.25 125.417C58.75 125.417 57.5 126.667 55.8333 128.333C54.1666 130 52.5 133.75 49.5833 135.833C47.0833 137.917 40 137.5 38.3333 140C36.6667 142.5 40 146.25 40 152.5C40 155 37.9167 156.667 37.5 158.333C37.0833 160.417 36.6667 161.667 37.5 163.333C39.1667 165.833 41.25 166.667 55.4167 169.583C62.9167 171.25 70 175.417 74.5833 175.833C79.1666 176.25 87.0833 175.833 87.0833 164.583C87.5 157.917 83.75 156.25 80 149.583ZM87.9167 74.1667C85.4167 72.5 83.3333 70.8334 83.3333 68.3334C83.3333 65.8334 85 65 87.5 62.9167C87.9166 62.5 92.5 58.3334 97.0833 58.3334C101.667 58.3334 107.083 61.25 109.167 62.0834C112.917 62.9167 116.667 63.75 116.25 66.6667C115.833 70.8334 115.417 71.6667 111.25 73.75C108.333 74.5834 102.917 79.1667 99.1666 79.1667C97.5 79.1667 95 79.1667 93.3333 78.75C92.0833 78.3334 90 76.25 87.9167 74.1667Z" fill="#FFC107"/>
<path d="M87.0833 70.8333C87.9167 71.6667 89.1667 72.5 90.4167 72.9167C91.25 73.3333 92.5 73.75 92.5 73.75H96.25C98.3333 73.75 101.25 72.9167 104.167 71.25C107.083 70 107.5 69.1667 109.583 68.3333C111.667 67.0833 113.75 65.8333 112.917 65.4167C112.083 65 111.25 65.4167 108.333 67.0833C105.833 68.75 103.75 69.5833 101.25 70.8333C100 71.25 98.3333 72.0833 97.0833 72.0833H93.3333C92.0833 72.0833 91.25 71.6667 90 71.25C89.1667 70.8333 88.75 70.4167 88.3333 70.4167C87.5 70 85.8333 68.3333 85 67.9167C85 67.9167 84.1667 67.9167 84.5833 68.3333L87.0833 70.8333ZM99.5833 61.6667C100 62.5 100.833 62.5 101.25 62.9167C101.667 63.3333 102.083 63.3333 102.083 63.3333C102.5 62.9167 102.083 62.0833 101.667 62.0833C101.667 61.25 99.5833 61.25 99.5833 61.6667ZM92.9167 62.5C92.9167 62.9167 93.75 63.3333 93.75 62.9167C94.1667 62.5 94.5833 62.0833 95 62.0833C95.8333 61.6667 95.4167 61.25 94.1667 61.25C93.3333 61.6667 93.3333 62.0833 92.9167 62.5Z" fill="#634703"/>
<path d="M133.333 136.25V137.5C134.167 139.167 136.25 139.583 137.917 139.583C140.417 139.583 142.917 137.917 144.167 136.25C144.167 135.833 144.583 135.417 145 135C145.833 133.75 146.25 132.917 146.667 132.5C146.667 132.5 146.25 132.083 146.25 131.667C145.833 130.833 144.583 130 142.917 129.583C141.667 129.167 139.583 128.75 138.75 128.75C135 128.333 132.917 129.583 131.667 130.833C131.667 130.833 132.083 130.833 132.083 131.25C132.917 132.083 133.333 132.917 133.333 134.167C133.75 135 133.333 135.417 133.333 136.25Z" fill="#455A64"/>
</svg>
