<svg width="200" height="194" viewBox="0 0 200 194" fill="none" xmlns="http://www.w3.org/2000/svg">
<g clip-path="url(#clip0_9_4072)">
<path d="M111.982 131.288C129.219 124.66 137.827 105.293 131.21 88.0283C124.593 70.7639 105.256 62.1418 88.0196 68.7691C70.7829 75.3972 62.175 94.7651 68.7915 112.03C70.4701 116.409 73.0493 120.387 76.3617 123.705C79.6742 127.022 83.646 129.606 88.0196 131.288L65.5016 190.059C15.8594 170.973 -8.93745 115.195 10.1165 65.4734C29.1704 15.7516 84.8586 -9.08434 134.501 9.99962C184.143 29.0836 208.939 84.8617 189.885 134.584C185.052 147.2 177.623 158.658 168.082 168.215C158.541 177.772 147.1 185.213 134.501 190.057L111.982 131.288Z" fill="#3DA639"/>
<path d="M134.5 193.506C133.804 193.507 133.124 193.296 132.55 192.901C131.976 192.506 131.535 191.945 131.287 191.294L108.768 132.523C108.441 131.669 108.466 130.721 108.838 129.886C109.209 129.051 109.896 128.397 110.748 128.069C118.226 125.194 124.139 119.574 127.397 112.244C130.655 104.915 130.867 96.7536 127.996 89.2643C122.07 73.8022 104.691 66.0524 89.2539 71.9881C73.8164 77.9247 66.0789 95.3323 72.0055 110.794C73.5137 114.721 75.828 118.288 78.799 121.263C81.7699 124.239 85.3314 126.558 89.2531 128.069C90.1053 128.397 90.7925 129.051 91.1638 129.886C91.5352 130.721 91.5603 131.669 91.2336 132.523L68.7148 191.294C68.3878 192.148 67.7355 192.836 66.9016 193.208C66.0676 193.58 65.1203 193.605 64.268 193.277C39.4008 183.718 19.7383 165.03 8.90311 140.658C-1.93126 116.286 -2.6422 89.1462 6.90311 64.2391C16.4461 39.332 35.1039 19.6379 59.4375 8.7848C83.7711 -2.06824 110.866 -2.77932 135.734 6.78066C160.602 16.3406 180.264 35.028 191.098 59.4C201.933 83.7721 202.644 110.912 193.098 135.819C182.987 162.206 162.078 183.149 135.734 193.276C135.34 193.428 134.922 193.506 134.501 193.506M99.968 6.99343C87.1297 6.99343 74.3195 9.69692 62.2383 15.0843C39.5859 25.1888 22.2156 43.5225 13.3305 66.711C4.44452 89.8987 5.10624 115.164 15.193 137.853C24.8117 159.491 41.9023 176.314 63.543 185.547L83.6305 133.12C75.3426 128.999 68.9007 121.914 65.5781 113.266C58.2914 94.2543 67.8047 72.8502 86.7859 65.5517C105.768 58.2532 127.137 67.7827 134.423 86.7931C137.954 96.0027 137.691 106.038 133.686 115.05C130.151 123.004 124.073 129.321 116.373 133.125L136.458 185.545C159.477 175.696 177.67 156.84 186.672 133.349C195.557 110.162 194.896 84.8962 184.809 62.2068C174.723 39.5174 156.418 22.12 133.267 13.2202C122.462 9.06642 111.204 6.995 99.9672 6.995M185.735 179.587C184.488 180.865 183.864 182.38 183.864 184.133C183.864 185.95 184.498 187.493 185.767 188.764C187.029 190.035 188.553 190.67 190.34 190.67C192.119 190.67 193.64 190.031 194.902 188.753C196.163 187.469 196.794 185.929 196.794 184.133C196.794 182.386 196.166 180.871 194.912 179.587C193.643 178.281 192.119 177.627 190.34 177.627C188.539 177.627 187.004 178.281 185.735 179.587ZM195.827 189.766C194.303 191.242 192.474 191.979 190.34 191.979C188.135 191.979 186.278 191.224 184.768 189.712C183.258 188.2 182.502 186.34 182.502 184.133C182.502 181.84 183.318 179.934 184.948 178.415C186.48 176.996 188.277 176.286 190.339 176.286C192.502 176.286 194.348 177.052 195.88 178.586C197.411 180.119 198.177 181.968 198.177 184.133C198.177 186.362 197.393 188.24 195.827 189.766ZM191.052 181.514C190.74 181.393 190.3 181.333 189.734 181.333H189.18V183.857H190.063C190.595 183.857 191.009 183.75 191.307 183.537C191.605 183.324 191.754 182.98 191.754 182.504C191.754 182.028 191.52 181.698 191.052 181.514ZM186.905 188.498V179.8C187.444 179.8 188.25 179.802 189.324 179.805C190.399 179.808 190.996 179.814 191.116 179.821C191.803 179.87 192.374 180.02 192.828 180.268C193.601 180.694 193.987 181.386 193.987 182.344C193.987 183.076 193.783 183.604 193.376 183.931C192.968 184.257 192.466 184.453 191.871 184.517C192.417 184.63 192.828 184.797 193.105 185.017C193.615 185.428 193.87 186.078 193.87 186.965V187.743C193.87 187.827 193.876 187.912 193.886 187.998C193.896 188.083 193.916 188.169 193.945 188.254L194.019 188.498H191.849C191.778 188.221 191.733 187.82 191.712 187.295C191.69 186.77 191.644 186.415 191.573 186.231C191.521 186.083 191.436 185.95 191.326 185.839C191.216 185.729 191.082 185.644 190.935 185.592C190.765 185.521 190.506 185.474 190.159 185.453L189.659 185.422H189.18V188.498H186.905Z" fill="#1D531D"/>
</g>
<defs>
<clipPath id="clip0_9_4072">
<rect width="200" height="194" fill="white"/>
</clipPath>
</defs>
</svg>
