<svg width="100" height="100" viewBox="0 0 100 100" fill="none" xmlns="http://www.w3.org/2000/svg">
<path d="M50 4.5813C24.9157 4.5813 4.5813 24.9157 4.5813 50C4.5813 75.0844 24.9157 95.4188 50 95.4188C75.0844 95.4188 95.4188 75.0844 95.4188 50C95.4188 24.9157 75.0844 4.5813 50 4.5813ZM53.9219 74.625V81.0219H47.8032V74.6969C37.7626 73.3219 33.3657 65.0719 33.3657 65.0719L39.6157 59.8438C39.6157 59.8438 43.6063 66.7907 50.8251 66.7907C54.8125 66.7907 57.8375 64.6563 57.8375 61.0094C57.8375 52.4844 34.8688 53.5188 34.8688 37.7032C34.8688 30.8282 40.3063 25.875 47.8 24.7032V18.3125H53.9188V24.7032C59.1438 25.3907 65.3313 28.1407 65.3313 34.0563V38.5938H57.2188V36.3938C57.2188 34.125 54.3282 32.6125 51.0938 32.6125C46.9688 32.6125 43.9469 34.6751 43.9469 37.5626C43.9469 46.2938 66.9157 44.1625 66.9157 60.7344C66.9157 67.5469 61.8282 73.4532 53.9219 74.625Z" fill="black"/>
</svg>
