<svg width="100" height="100" viewBox="0 0 100 100" fill="none" xmlns="http://www.w3.org/2000/svg">
<path fill-rule="evenodd" clip-rule="evenodd" d="M46.925 92.2249C46.925 92.2249 16.6667 66.7416 16.6667 41.6666C16.6667 32.826 20.1786 24.3476 26.4298 18.0964C32.681 11.8451 41.1594 8.33325 50 8.33325C58.8405 8.33325 67.319 11.8451 73.5702 18.0964C79.8214 24.3476 83.3333 32.826 83.3333 41.6666C83.3333 66.7416 53.075 92.2249 53.075 92.2249C51.3917 93.7749 48.6208 93.7583 46.925 92.2249ZM50 56.2499C51.9151 56.2499 53.8115 55.8727 55.5808 55.1398C57.3501 54.4069 58.9578 53.3327 60.312 51.9786C61.6661 50.6244 62.7404 49.0167 63.4732 47.2474C64.2061 45.4781 64.5833 43.5817 64.5833 41.6666C64.5833 39.7515 64.2061 37.8551 63.4732 36.0858C62.7404 34.3165 61.6661 32.7088 60.312 31.3546C58.9578 30.0004 57.3501 28.9262 55.5808 28.1933C53.8115 27.4605 51.9151 27.0833 50 27.0833C46.1322 27.0833 42.4229 28.6197 39.688 31.3546C36.9531 34.0895 35.4167 37.7988 35.4167 41.6666C35.4167 45.5343 36.9531 49.2437 39.688 51.9786C42.4229 54.7135 46.1322 56.2499 50 56.2499Z" fill="black"/>
</svg>
