<svg width="50" height="50" viewBox="0 0 50 50" fill="none" xmlns="http://www.w3.org/2000/svg">
<path d="M25.0002 27.9167L14.7918 38.125C14.4099 38.5069 13.9238 38.6979 13.3335 38.6979C12.7432 38.6979 12.2571 38.5069 11.8752 38.125C11.4932 37.7431 11.3022 37.2569 11.3022 36.6667C11.3022 36.0764 11.4932 35.5903 11.8752 35.2083L22.0835 25L11.8752 14.7917C11.4932 14.4097 11.3022 13.9236 11.3022 13.3333C11.3022 12.7431 11.4932 12.2569 11.8752 11.875C12.2571 11.4931 12.7432 11.3021 13.3335 11.3021C13.9238 11.3021 14.4099 11.4931 14.7918 11.875L25.0002 22.0833L35.2085 11.875C35.5904 11.4931 36.0766 11.3021 36.6668 11.3021C37.2571 11.3021 37.7432 11.4931 38.1252 11.875C38.5071 12.2569 38.6981 12.7431 38.6981 13.3333C38.6981 13.9236 38.5071 14.4097 38.1252 14.7917L27.9168 25L38.1252 35.2083C38.5071 35.5903 38.6981 36.0764 38.6981 36.6667C38.6981 37.2569 38.5071 37.7431 38.1252 38.125C37.7432 38.5069 37.2571 38.6979 36.6668 38.6979C36.0766 38.6979 35.5904 38.5069 35.2085 38.125L25.0002 27.9167Z" fill="black"/>
</svg>
