<svg width="100" height="100" viewBox="0 0 100 100" fill="none" xmlns="http://www.w3.org/2000/svg">
<path d="M50 85C55.5228 85 60 80.5228 60 75C60 69.4772 55.5228 65 50 65C44.4772 65 40 69.4772 40 75C40 80.5228 44.4772 85 50 85Z" fill="black"/>
<path d="M5 36.9999C10.6305 30.0835 17.5551 24.5442 25.3137 20.7499C33.0724 16.9557 41.4875 14.9934 50 14.9934C58.5125 14.9934 66.9276 16.9557 74.6863 20.7499C82.4449 24.5442 89.3695 30.0835 95 36.9999L87.5 44C82.8079 38.0944 77.0374 33.3646 70.5719 30.1249C64.1064 26.8853 57.0938 25.2097 50 25.2097C42.9062 25.2097 35.8936 26.8853 29.4281 30.1249C22.9626 33.3646 17.1921 38.0944 12.5 44L5 36.9999ZM23.5 53C26.7855 48.9393 30.8814 45.6755 35.5017 43.4367C40.122 41.1979 45.1553 40.038 50.25 40.038C55.3447 40.038 60.378 41.1979 64.9983 43.4367C69.6186 45.6755 73.7145 48.9393 77 53L70 60C67.6575 56.9049 64.6891 54.407 61.3141 52.6906C57.939 50.9742 54.2434 50.0831 50.5 50.0831C46.7566 50.0831 43.061 50.9742 39.6859 52.6906C36.3109 54.407 33.3425 56.9049 31 60L23.5 53Z" fill="black"/>
</svg>
