<svg width="253" height="44" viewBox="0 0 253 44" fill="none" xmlns="http://www.w3.org/2000/svg">
<path d="M21.7392 31.2861L32.9349 38.0433L29.9639 25.3078L39.8552 16.739L26.8298 15.6339L21.7392 3.62305L16.6487 15.6339L3.62329 16.739L13.5146 25.3078L10.5436 38.0433L21.7392 31.2861Z" fill="#FFFF00"/>
<path d="M73.9135 31.2861L85.1092 38.0433L82.1382 25.3078L92.0295 16.739L79.0041 15.6339L73.9135 3.62305L68.823 15.6339L55.7976 16.739L65.6889 25.3078L62.7179 38.0433L73.9135 31.2861Z" fill="#FFFF00"/>
<path d="M126.087 31.2861L137.283 38.0433L134.312 25.3078L144.203 16.739L131.178 15.6339L126.087 3.62305L120.997 15.6339L107.971 16.739L117.863 25.3078L114.892 38.0433L126.087 31.2861Z" fill="#FFFF00"/>
<path d="M178.261 31.2861L189.457 38.0433L186.486 25.3078L196.377 16.739L183.352 15.6339L178.261 3.62305L173.171 15.6339L160.145 16.739L170.037 25.3078L167.066 38.0433L178.261 31.2861Z" fill="#FFFF00"/>
<path d="M230.435 31.2861L241.631 38.0433L238.66 25.3078L248.551 16.739L235.526 15.6339L230.435 3.62305L225.345 15.6339L212.319 16.739L222.211 25.3078L219.24 38.0433L230.435 31.2861Z" fill="#FFFF00"/>
</svg>
